<svg viewBox="0 0 56 64" fill="none" xmlns="http://www.w3.org/2000/svg" id="default">
<rect width="100%" height="100%" fill="#008BCC"/>
<path d="M13.7109 46.7152H25.4904V48.3986H13.7109V46.7152ZM13.7109 43.6419H25.4904V45.3253H13.7109V43.6419ZM13.7109 40.547H25.4904V42.2304H13.7109V40.547ZM25.2832 26.726H13.7109V24.9476H25.2832V26.726ZM25.2832 29.8942H13.7109V28.1158H25.2832V29.8942ZM35.3965 37.4738C33.7131 38.9716 25.7666 39.2478 25.0371 39.1572H13.7109V37.4738H35.3965ZM35.3015 17.2817H13.7196V15.6026H24.9422C24.9422 15.6026 32.3016 15.5033 34.8699 16.8975C35.046 16.9946 35.2037 17.1217 35.3361 17.2731L35.3015 17.2817ZM38.8539 20.3679H13.7109V18.6759H37.2525C37.8007 19.237 38.2971 19.8197 38.8582 20.3679H38.8539ZM40.628 23.5448H13.7109V21.7707H39.7906C40.0711 22.3319 40.3517 22.9836 40.6323 23.5448H40.628ZM29.4053 24.9476H41.0078C41.1922 25.5224 41.2868 26.1223 41.2884 26.726H30.8168C30.6312 26.1648 30.5362 25.431 29.414 24.9476H29.4053ZM30.8082 28.1158H41.2884C41.2864 28.7181 41.1918 29.3164 41.0078 29.8899H29.414C29.8124 29.7934 30.167 29.5663 30.4213 29.2448C30.6756 28.9232 30.8148 28.5258 30.8168 28.1158H30.8082ZM13.7109 31.2884H40.6323C40.3517 31.9445 40.0711 32.5056 39.7906 33.0624H13.7109V31.2884ZM13.7109 34.3919H38.8582C38.4116 34.9938 37.9133 35.5556 37.3691 36.0709H13.7109V34.3919Z" fill="white"/>
</svg>
